<mxfile host="app.diagrams.net" modified="2024-05-09T19:28:08.263Z" agent="Mozilla/5.0 (Windows NT 10.0; Win64; x64; rv:123.0) Gecko/20100101 Firefox/123.0" version="24.3.1" etag="IPBT53ktx_idZe9Bg8gW" type="github">
  <diagram name="Seite-1" id="oZQcXq3tTYJFa5Nzmht4">
    <mxGraphModel>
      <root>
        <mxCell id="0" />
        <mxCell id="1" parent="0" />
      </root>
    </mxGraphModel>
  </diagram>
</mxfile>
